<svg width="24" height="24" viewBox="0 0 24 24" fill="none" xmlns="http://www.w3.org/2000/svg">
<path d="M18.3335 8.91602H13.3335" stroke="white" stroke-width="1.5" stroke-miterlimit="10" stroke-linecap="round" stroke-linejoin="round"/>
<path d="M4.99984 8.91602H1.6665" stroke="white" stroke-width="1.5" stroke-miterlimit="10" stroke-linecap="round" stroke-linejoin="round"/>
<path d="M8.33317 11.8333C9.944 11.8333 11.2498 10.5275 11.2498 8.91667C11.2498 7.30584 9.944 6 8.33317 6C6.72234 6 5.4165 7.30584 5.4165 8.91667C5.4165 10.5275 6.72234 11.8333 8.33317 11.8333Z" stroke="white" stroke-width="1.5" stroke-miterlimit="10" stroke-linecap="round" stroke-linejoin="round"/>
<path d="M18.3333 18.084H15" stroke="white" stroke-width="1.5" stroke-miterlimit="10" stroke-linecap="round" stroke-linejoin="round"/>
<path d="M6.6665 18.084H1.6665" stroke="white" stroke-width="1.5" stroke-miterlimit="10" stroke-linecap="round" stroke-linejoin="round"/>
<path d="M11.6667 20.9993C13.2775 20.9993 14.5833 19.6935 14.5833 18.0827C14.5833 16.4719 13.2775 15.166 11.6667 15.166C10.0558 15.166 8.75 16.4719 8.75 18.0827C8.75 19.6935 10.0558 20.9993 11.6667 20.9993Z" stroke="white" stroke-width="1.5" stroke-miterlimit="10" stroke-linecap="round" stroke-linejoin="round"/>
<g filter="url(#filter0_d_958_20787)">
<circle cx="18" cy="5.5" r="4" fill="#FF4C5E"/>
</g>
<defs>
<filter id="filter0_d_958_20787" x="10" y="0.5" width="14" height="14" filterUnits="userSpaceOnUse" color-interpolation-filters="sRGB">
<feFlood flood-opacity="0" result="BackgroundImageFix"/>
<feColorMatrix in="SourceAlpha" type="matrix" values="0 0 0 0 0 0 0 0 0 0 0 0 0 0 0 0 0 0 127 0" result="hardAlpha"/>
<feOffset dx="-1" dy="2"/>
<feGaussianBlur stdDeviation="1.5"/>
<feComposite in2="hardAlpha" operator="out"/>
<feColorMatrix type="matrix" values="0 0 0 0 0 0 0 0 0 0 0 0 0 0 0 0 0 0 0.1 0"/>
<feBlend mode="normal" in2="BackgroundImageFix" result="effect1_dropShadow_958_20787"/>
<feBlend mode="normal" in="SourceGraphic" in2="effect1_dropShadow_958_20787" result="shape"/>
</filter>
</defs>
</svg>
